name rise30.9205peak61.366fall85.3838.mot
datacolumns 19
datarows 35
range 22.56658200000000 22.62324700000000
endheader
time	ground_force1_vx	ground_force1_vy	ground_force1_vz	ground_force1_px	ground_force1_py	ground_force1_pz	ground_force2_vx	ground_force2_vy	ground_force2_vz	ground_force2_px	ground_force2_py	ground_force2_pz	ground_torque1_x	ground_torque1_y	ground_torque1_z	ground_torque2_x	ground_torque2_y	ground_torque2_z	
22.56658200000000	-35.88803900000000	827.63011600000004	57.35196400000000	0.14795500000000	0.00000000000000	0.07189800000000	-5.71228000000000	16.29666600000000	2.43219900000000	0.00000000000000	0.00000000000000	0.00000000000000	0.00000000000000	20.94043600000000	0.00000000000000	0.00000000000000	0.48102800000000	0.00000000000000	
22.56825100000000	-36.18323800000000	825.61985200000004	57.32443200000000	0.14710600000000	0.00000000000000	0.07184200000000	-7.23438000000000	21.74718400000000	3.12546900000000	0.00000000000000	0.00000000000000	0.00000000000000	0.00000000000000	20.82576200000000	0.00000000000000	0.00000000000000	0.62763400000000	0.00000000000000	
22.56991900000000	-36.49230700000000	823.47474099999999	57.27125100000000	0.14626500000000	0.00000000000000	0.07178200000000	-8.78557900000000	27.68682400000000	3.84656600000000	0.34889000000000	0.00000000000000	-0.09858900000000	0.00000000000000	20.70788200000000	0.00000000000000	0.00000000000000	1.25920400000000	0.00000000000000	
22.57158300000000	-36.81593800000000	821.19523600000002	57.19193900000000	0.14543100000000	0.00000000000000	0.07171700000000	-10.30991500000000	33.99429700000000	4.57263000000000	0.35358100000000	0.00000000000000	-0.09938400000000	0.00000000000000	20.58698600000000	0.00000000000000	0.00000000000000	1.53614800000000	0.00000000000000	
22.57325200000000	-37.15478100000000	818.78186200000005	57.08606800000000	0.14460600000000	0.00000000000000	0.07164700000000	-11.75255500000000	40.54131600000000	5.28075700000000	0.35798900000000	0.00000000000000	-0.10008800000000	0.00000000000000	20.46326500000000	0.00000000000000	0.00000000000000	1.81953900000000	0.00000000000000	
22.57491200000000	-37.50943400000000	816.23520499999995	56.95326100000000	0.14379000000000	0.00000000000000	0.07157300000000	-13.06382000000000	47.20316600000000	5.94967700000000	0.36215200000000	0.00000000000000	-0.10071500000000	0.00000000000000	20.33691000000000	0.00000000000000	0.00000000000000	2.10245100000000	0.00000000000000	
22.57658300000000	-37.88044300000000	813.55590500000005	56.79319800000000	0.14298500000000	0.00000000000000	0.07149300000000	-14.20248100000000	53.86808200000000	6.56117100000000	0.36610100000000	0.00000000000000	-0.10127600000000	0.00000000000000	20.20810900000000	0.00000000000000	0.00000000000000	2.37849900000000	0.00000000000000	
22.57824400000000	-38.26829500000000	810.74464399999999	56.60561400000000	0.14218900000000	0.00000000000000	0.07140800000000	-15.13798800000000	60.44444500000000	7.10107800000000	0.36986100000000	0.00000000000000	-0.10178200000000	0.00000000000000	20.07705100000000	0.00000000000000	0.00000000000000	2.64223900000000	0.00000000000000	
22.57992000000000	-38.67341900000000	807.80213800000001	56.39030400000000	0.14140500000000	0.00000000000000	0.07131800000000	-15.85153900000000	66.86531300000000	7.55983000000000	0.37345100000000	0.00000000000000	-0.10223900000000	0.00000000000000	19.94391700000000	0.00000000000000	0.00000000000000	2.88942800000000	0.00000000000000	
22.58158200000000	-39.09617600000000	804.72912699999995	56.14711900000000	0.14063300000000	0.00000000000000	0.07122300000000	-16.33602400000000	73.09020500000000	7.93252900000000	0.37688700000000	0.00000000000000	-0.10265600000000	0.00000000000000	19.80888800000000	0.00000000000000	0.00000000000000	3.11715300000000	0.00000000000000	
22.58325100000000	-39.53686300000000	801.52636700000005	55.87597200000000	0.13987300000000	0.00000000000000	0.07112200000000	-16.59502200000000	79.10441800000000	8.21863400000000	0.38018200000000	0.00000000000000	-0.10303700000000	0.00000000000000	19.67213500000000	0.00000000000000	0.00000000000000	3.32383000000000	0.00000000000000	
22.58491800000000	-39.99570300000000	798.19462099999998	55.57683300000000	0.13912500000000	0.00000000000000	0.07101700000000	-16.64109600000000	84.91634200000000	8.42134100000000	0.38334700000000	0.00000000000000	-0.10338700000000	0.00000000000000	19.53382600000000	0.00000000000000	0.00000000000000	3.50909000000000	0.00000000000000	
22.58658200000000	-40.47284400000000	794.73464999999999	55.24973600000000	0.13839100000000	0.00000000000000	0.07090600000000	-16.49363800000000	90.55332600000000	8.54676700000000	0.38638900000000	0.00000000000000	-0.10371000000000	0.00000000000000	19.39412000000000	0.00000000000000	0.00000000000000	3.67358500000000	0.00000000000000	
22.58825200000000	-40.96835800000000	791.14720699999998	54.89477500000000	0.13766900000000	0.00000000000000	0.07078900000000	-16.17652600000000	96.05670400000000	8.60303500000000	0.38931600000000	0.00000000000000	-0.10401000000000	0.00000000000000	19.25316900000000	0.00000000000000	0.00000000000000	3.81874300000000	0.00000000000000	
22.58991700000000	-41.48223400000000	787.43302500000004	54.51210300000000	0.13696100000000	0.00000000000000	0.07066800000000	-15.71581900000000	101.47653400000000	8.59935400000000	0.39213400000000	0.00000000000000	-0.10429000000000	0.00000000000000	19.11111700000000	0.00000000000000	0.00000000000000	3.94649800000000	0.00000000000000	
22.59158300000000	-42.01438000000000	783.59281499999997	54.10193700000000	0.13626700000000	0.00000000000000	0.07054100000000	-15.13766900000000	106.86652500000000	8.54517100000000	0.39484700000000	0.00000000000000	-0.10455200000000	0.00000000000000	18.96809600000000	0.00000000000000	0.00000000000000	4.05902300000000	0.00000000000000	
22.59324600000000	-42.56461400000000	779.62725599999999	53.66455100000000	0.13558600000000	0.00000000000000	0.07040900000000	-14.46658200000000	112.27952700000000	8.44944800000000	0.39745800000000	0.00000000000000	-0.10479900000000	0.00000000000000	18.82422900000000	0.00000000000000	0.00000000000000	4.15848300000000	0.00000000000000	
22.59491800000000	-43.13266700000000	775.53699099999994	53.20028200000000	0.13491900000000	0.00000000000000	0.07027200000000	-13.72409600000000	117.76383900000000	8.32010600000000	0.39997100000000	0.00000000000000	-0.10503200000000	0.00000000000000	18.67963100000000	0.00000000000000	0.00000000000000	4.24684200000000	0.00000000000000	
22.59657900000000	-43.71817900000000	771.32262000000003	52.70952200000000	0.13426600000000	0.00000000000000	0.07013000000000	-12.92791700000000	123.36047700000000	8.16363900000000	0.40238900000000	0.00000000000000	-0.10525400000000	0.00000000000000	18.53440300000000	0.00000000000000	0.00000000000000	4.32570100000000	0.00000000000000	
22.59825200000000	-44.32069600000000	766.98469499999999	52.19272400000000	0.13362600000000	0.00000000000000	0.06998200000000	-12.09149400000000	129.10144500000001	7.98490900000000	0.40471300000000	0.00000000000000	-0.10546500000000	0.00000000000000	18.38863500000000	0.00000000000000	0.00000000000000	4.39620400000000	0.00000000000000	
22.59991900000000	-44.93966800000000	762.52371700000003	51.65039800000000	0.13300000000000	0.00000000000000	0.06983000000000	-11.22397800000000	135.00894800000000	7.78709300000000	0.40694600000000	0.00000000000000	-0.10566700000000	0.00000000000000	18.24240600000000	0.00000000000000	0.00000000000000	4.45899200000000	0.00000000000000	
22.60158000000000	-45.57445100000000	757.94013299999995	51.08310600000000	0.13238700000000	0.00000000000000	0.06967300000000	-10.33051600000000	141.09545299999999	7.57177800000000	0.40908800000000	0.00000000000000	-0.10586100000000	0.00000000000000	18.09578500000000	0.00000000000000	0.00000000000000	4.51420500000000	0.00000000000000	
22.60324800000000	-46.22430200000000	753.23433000000000	50.49146600000000	0.13178700000000	0.00000000000000	0.06951200000000	-9.41278100000000	147.36442099999999	7.33914400000000	0.41114000000000	0.00000000000000	-0.10604900000000	0.00000000000000	17.94882500000000	0.00000000000000	0.00000000000000	4.56151800000000	0.00000000000000	
22.60491200000000	-46.88837800000000	748.40663700000005	49.87614700000000	0.13119900000000	0.00000000000000	0.06934600000000	-8.46966100000000	153.81154000000001	7.08822800000000	0.41310400000000	0.00000000000000	-0.10623100000000	0.00000000000000	17.80157200000000	0.00000000000000	0.00000000000000	4.60021700000000	0.00000000000000	
22.60657800000000	-47.56574000000000	743.45731999999998	49.23787000000000	0.13062400000000	0.00000000000000	0.06917500000000	-7.49803300000000	160.42627700000000	6.81722400000000	0.41498100000000	0.00000000000000	-0.10640800000000	0.00000000000000	17.65405700000000	0.00000000000000	0.00000000000000	4.62928600000000	0.00000000000000	
22.60825200000000	-48.25534900000000	738.38658699999996	48.57740000000000	0.13005900000000	0.00000000000000	0.06900100000000	-6.49353500000000	167.19356700000000	6.52379200000000	0.41677000000000	0.00000000000000	-0.10658000000000	0.00000000000000	17.50629900000000	0.00000000000000	0.00000000000000	4.64750600000000	0.00000000000000	
22.60991400000000	-48.95606700000000	733.19458099999997	47.89554900000000	0.12950600000000	0.00000000000000	0.06882200000000	-5.45128600000000	174.09548799999999	6.20534600000000	0.41847300000000	0.00000000000000	-0.10674800000000	0.00000000000000	17.35830800000000	0.00000000000000	0.00000000000000	4.65355500000000	0.00000000000000	
22.61158100000000	-49.66665900000000	727.88139100000001	47.19317400000000	0.12896300000000	0.00000000000000	0.06863900000000	-4.36651900000000	181.11281600000001	5.85931900000000	0.42009000000000	0.00000000000000	-0.10691400000000	0.00000000000000	17.21008200000000	0.00000000000000	0.00000000000000	4.64610000000000	0.00000000000000	
22.61324900000000	-50.38579400000000	722.44704600000000	46.47116800000000	0.12843000000000	0.00000000000000	0.06845300000000	-3.23507800000000	188.22634400000001	5.48337100000000	0.42162200000000	0.00000000000000	-0.10707600000000	0.00000000000000	17.06160700000000	0.00000000000000	0.00000000000000	4.62387600000000	0.00000000000000	
22.61491200000000	-51.11204600000000	716.89152899999999	45.73046600000000	0.12790500000000	0.00000000000000	0.06826400000000	-2.05378500000000	195.41793999999999	5.07554900000000	0.42306900000000	0.00000000000000	-0.10723600000000	0.00000000000000	16.91286100000000	0.00000000000000	0.00000000000000	4.58575200000000	0.00000000000000	
22.61658000000000	-51.84389500000000	711.21477200000004	44.97203400000000	0.12738900000000	0.00000000000000	0.06807100000000	-0.82066700000000	202.67130200000000	4.63439400000000	0.42443100000000	0.00000000000000	-0.10739400000000	0.00000000000000	16.76381000000000	0.00000000000000	0.00000000000000	4.53077300000000	0.00000000000000	
22.61825100000000	-52.57973500000000	705.41667199999995	44.19687400000000	0.12688000000000	0.00000000000000	0.06787500000000	0.46494900000000	209.97241500000001	4.15898900000000	0.42570900000000	0.00000000000000	-0.10755100000000	0.00000000000000	16.61441300000000	0.00000000000000	0.00000000000000	4.45819000000000	0.00000000000000	
22.61991700000000	-53.31787000000000	699.49709299999995	43.40601300000000	0.12637700000000	0.00000000000000	0.06767600000000	1.80244500000000	217.30974699999999	3.64897000000000	0.42690300000000	0.00000000000000	-0.10770600000000	0.00000000000000	16.46461800000000	0.00000000000000	0.00000000000000	4.36747400000000	0.00000000000000	
22.62158600000000	-54.05652400000000	693.45587899999998	42.60050800000000	0.12587900000000	0.00000000000000	0.06747500000000	3.19001300000000	224.67420799999999	3.10449600000000	0.42801400000000	0.00000000000000	-0.10786000000000	0.00000000000000	16.31436700000000	0.00000000000000	0.00000000000000	4.25830800000000	0.00000000000000	
22.62324700000000	-54.79384100000000	687.29286400000001	41.78143700000000	0.12538600000000	0.00000000000000	0.06727200000000	4.62482300000000	232.05893900000001	2.52618800000000	0.42904200000000	0.00000000000000	-0.10801200000000	0.00000000000000	16.16359500000000	0.00000000000000	0.00000000000000	4.13057700000000	0.00000000000000	
